<?xml version="1.0" encoding="UTF-8"?>
<svg version="1.1" xmlns="http://www.w3.org/2000/svg" width="64" height="64">
<path d="M0 0 C0.87140625 0.00257812 1.7428125 0.00515625 2.640625 0.0078125 C3.93226562 0.00394531 3.93226562 0.00394531 5.25 0 C10.33671147 0.25584052 10.33671147 0.25584052 12.890625 1.1328125 C14.33203125 3.34765625 14.33203125 3.34765625 15.453125 6.0703125 C16.9162592 9.84544227 16.9162592 9.84544227 19.91796875 12.32421875 C20.89443359 12.72447266 20.89443359 12.72447266 21.890625 13.1328125 C22.550625 13.7928125 23.210625 14.4528125 23.890625 15.1328125 C23.69637465 20.14169641 22.21574037 22.58262133 18.640625 26.0078125 C14.32629441 29.74064636 11.46090883 30.71400599 5.765625 30.6953125 C3.80352126 30.55257285 1.84224803 30.38058909 -0.109375 30.1328125 C-0.05716797 31.29683594 -0.05716797 31.29683594 -0.00390625 32.484375 C-0.109375 35.1328125 -0.109375 35.1328125 -1.796875 37.5078125 C-4.109375 39.1328125 -4.109375 39.1328125 -6.390625 39.0625 C-10.03475451 37.81637525 -12.28761041 35.57686681 -14.921875 32.8828125 C-15.42396484 32.40457031 -15.92605469 31.92632812 -16.44335938 31.43359375 C-18.71630679 29.151369 -20.02611514 27.62461012 -20.5703125 24.41015625 C-20.109375 22.1328125 -20.109375 22.1328125 -17.921875 19.9453125 C-15.34500816 18.28466498 -12.96160099 17.21203314 -10.109375 16.1328125 C-7.77785192 14.21555256 -7.77785192 14.21555256 -7.734375 10.8828125 C-7.02026166 6.59813244 -5.00783661 0.31530823 0 0 Z M3.890625 4.1328125 C3.560625 4.7928125 3.230625 5.4528125 2.890625 6.1328125 C3.880625 5.8028125 4.870625 5.4728125 5.890625 5.1328125 C5.230625 4.8028125 4.570625 4.4728125 3.890625 4.1328125 Z M1.890625 6.1328125 C2.890625 8.1328125 2.890625 8.1328125 2.890625 8.1328125 Z M1.890625 10.1328125 C2.890625 12.1328125 2.890625 12.1328125 2.890625 12.1328125 Z M3.890625 12.1328125 C3.890625 12.7928125 3.890625 13.4528125 3.890625 14.1328125 C2.900625 14.4628125 1.910625 14.7928125 0.890625 15.1328125 C3.84727019 16.6111351 6.63292237 16.19314033 9.890625 16.1328125 C9.890625 15.8028125 9.890625 15.4728125 9.890625 15.1328125 C8.240625 15.1328125 6.590625 15.1328125 4.890625 15.1328125 C5.220625 14.1428125 5.550625 13.1528125 5.890625 12.1328125 C5.230625 12.1328125 4.570625 12.1328125 3.890625 12.1328125 Z M-7.109375 13.1328125 C-7.109375 13.4628125 -7.109375 13.7928125 -7.109375 14.1328125 C-4.469375 14.1328125 -1.829375 14.1328125 0.890625 14.1328125 C0.890625 13.8028125 0.890625 13.4728125 0.890625 13.1328125 C-1.749375 13.1328125 -4.389375 13.1328125 -7.109375 13.1328125 Z M16.234375 17.62890625 C15.32171875 18.58990234 15.32171875 18.58990234 14.390625 19.5703125 C10.07645447 24.09470744 10.07645447 24.09470744 5.8515625 24.23046875 C4.07652344 24.21306641 4.07652344 24.21306641 2.265625 24.1953125 C1.07710937 24.18628906 -0.11140625 24.17726563 -1.3359375 24.16796875 C-2.25117188 24.15636719 -3.16640625 24.14476562 -4.109375 24.1328125 C-3.779375 23.4728125 -3.449375 22.8128125 -3.109375 22.1328125 C0.520625 22.1328125 4.150625 22.1328125 7.890625 22.1328125 C8.220625 21.1428125 8.550625 20.1528125 8.890625 19.1328125 C1.47275944 17.16138315 1.47275944 17.16138315 -6.109375 17.1328125 C-8.48657193 19.00783181 -8.48657193 19.00783181 -10.109375 21.1328125 C-8.13547834 24.10849882 -6.15131215 26.23584691 -3.109375 28.1328125 C3.21032357 29.22557779 8.64631729 28.63742329 14.01953125 25.03515625 C16.46700673 22.83834682 18.72356482 20.60445947 20.890625 18.1328125 C20.560625 17.4728125 20.230625 16.8128125 19.890625 16.1328125 C17.76599676 15.90937338 17.76599676 15.90937338 16.234375 17.62890625 Z " fill="#FEB200" transform="translate(22.109375,24.8671875)"/>
<path d="M0 0 C0.87140625 0.00257812 1.7428125 0.00515625 2.640625 0.0078125 C3.50171875 0.00523438 4.3628125 0.00265625 5.25 0 C10.34576232 0.25629574 10.34576232 0.25629574 12.890625 1.1328125 C14.47265625 3.41796875 14.47265625 3.41796875 15.703125 6.1953125 C16.12207031 7.11441406 16.54101562 8.03351562 16.97265625 8.98046875 C17.27558594 9.69074219 17.57851563 10.40101562 17.890625 11.1328125 C15.890625 13.6953125 15.890625 13.6953125 12.890625 16.1328125 C9.9519782 16.33719207 7.81317763 15.81474145 4.890625 15.1328125 C4.560625 14.8028125 4.230625 14.4728125 3.890625 14.1328125 C1.87098301 14.06037197 -0.15104624 14.04904062 -2.171875 14.0703125 C-3.27660156 14.07933594 -4.38132812 14.08835937 -5.51953125 14.09765625 C-6.37417969 14.10925781 -7.22882812 14.12085938 -8.109375 14.1328125 C-7.7079235 9.11466872 -6.23201241 0.39238597 0 0 Z M3.890625 4.1328125 C3.560625 4.7928125 3.230625 5.4528125 2.890625 6.1328125 C3.880625 5.8028125 4.870625 5.4728125 5.890625 5.1328125 C5.230625 4.8028125 4.570625 4.4728125 3.890625 4.1328125 Z M1.890625 6.1328125 C2.890625 8.1328125 2.890625 8.1328125 2.890625 8.1328125 Z M1.890625 10.1328125 C2.890625 12.1328125 2.890625 12.1328125 2.890625 12.1328125 Z " fill="#FE9C00" transform="translate(22.109375,24.8671875)"/>
<path d="M0 0 C2.97 0 5.94 0 9 0 C9.33 1.32 9.66 2.64 10 4 C10.99 4 11.98 4 13 4 C12.34 5.65 11.68 7.3 11 9 C9.58344207 9.0272415 8.16672955 9.04650467 6.75 9.0625 C5.56664062 9.07990234 5.56664062 9.07990234 4.359375 9.09765625 C2.09308998 9.00385306 0.1711105 8.63241063 -2 8 C-2.33 6.68 -2.66 5.36 -3 4 C-2.01 4 -1.02 4 0 4 C0 2.68 0 1.36 0 0 Z " fill="#FD8600" transform="translate(22,11)"/>
<path d="M0 0 C4.62 0 9.24 0 14 0 C14 1.65 14 3.3 14 5 C9.38 5 4.76 5 0 5 C0 3.35 0 1.7 0 0 Z " fill="#FFB600" transform="translate(42,50)"/>
<path d="M0 0 C4.62 0 9.24 0 14 0 C14 1.65 14 3.3 14 5 C9.38 5 4.76 5 0 5 C0 3.35 0 1.7 0 0 Z " fill="#FE9F00" transform="translate(45,32)"/>
<path d="M0 0 C4.29 0 8.58 0 13 0 C13.33 1.65 13.66 3.3 14 5 C9.38 5 4.76 5 0 5 C0 3.35 0 1.7 0 0 Z " fill="#FFBE00" transform="translate(46,56)"/>
<path d="M0 0 C4.29 0 8.58 0 13 0 C13 1.65 13 3.3 13 5 C8.71 5 4.42 5 0 5 C0 3.35 0 1.7 0 0 Z " fill="#FEAD00" transform="translate(50,44)"/>
<path d="M0 0 C4.29 0 8.58 0 13 0 C13 1.65 13 3.3 13 5 C8.71 5 4.42 5 0 5 C0 3.35 0 1.7 0 0 Z " fill="#FEA600" transform="translate(50,38)"/>
<path d="M0 0 C0.0825 0.61875 0.165 1.2375 0.25 1.875 C0.81258459 4.18437567 0.81258459 4.18437567 3.0625 5.25 C3.701875 5.4975 4.34125 5.745 5 6 C5 6.99 5 7.98 5 9 C1.7 8.67 -1.6 8.34 -5 8 C-5.33 5.69 -5.66 3.38 -6 1 C-3.92446352 0.4465236 -2.15634036 0 0 0 Z " fill="#FD8500" transform="translate(10,11)"/>
<path d="M0 0 C1.98 0.66 3.96 1.32 6 2 C5.67 3.98 5.34 5.96 5 8 C4.401875 7.79375 3.80375 7.5875 3.1875 7.375 C0.71549154 6.69328085 0.71549154 6.69328085 -2 9 C-4.1875 8.625 -4.1875 8.625 -6 8 C-5.195625 7.236875 -4.39125 6.47375 -3.5625 5.6875 C-0.83200976 3.20569102 -0.83200976 3.20569102 0 0 Z " fill="#FD8900" transform="translate(44,11)"/>
<path d="M0 0 C1.9375 0.75 1.9375 0.75 4 2 C4.875 4 4.875 4 5 6 C4.34 6.66 3.68 7.32 3 8 C1.68 8 0.36 8 -1 8 C-1 7.34 -1 6.68 -1 6 C-2.98 6 -4.96 6 -7 6 C-7 5.01 -7 4.02 -7 3 C-5.5459375 2.814375 -5.5459375 2.814375 -4.0625 2.625 C-2.5465625 2.315625 -2.5465625 2.315625 -1 2 C-0.67 1.34 -0.34 0.68 0 0 Z " fill="#FE9400" transform="translate(48,22)"/>
<path d="M0 0 C0.99 0 1.98 0 3 0 C3 0.99 3 1.98 3 3 C5.31 3 7.62 3 10 3 C10 3.99 10 4.98 10 6 C7.69 6 5.38 6 3 6 C3 6.66 3 7.32 3 8 C1.68 7.67 0.36 7.34 -1 7 C-1.625 4.625 -1.625 4.625 -2 2 C-1.34 1.34 -0.68 0.68 0 0 Z " fill="#FE9300" transform="translate(3,22)"/>
<path d="M0 0 C1.9375 0.1875 1.9375 0.1875 4 1 C5.25 3.0625 5.25 3.0625 6 5 C5.01 5.495 5.01 5.495 4 6 C3.34444881 8.52733235 3.34444881 8.52733235 3 11 C2.01 11 1.02 11 0 11 C0 9.35 0 7.7 0 6 C-0.66 6 -1.32 6 -2 6 C-1.125 1.125 -1.125 1.125 0 0 Z " fill="#FD7400" transform="translate(25,0)"/>
<path d="M0 0 C3.96 0 7.92 0 12 0 C12 0.99 12 1.98 12 3 C8.04 3 4.08 3 0 3 C0 2.01 0 1.02 0 0 Z " fill="#FE8D00" transform="translate(21,21)"/>
</svg>
